<?xml version="1.0" encoding="utf-8"?>
<!-- Generator: Adobe Illustrator 21.0.2, SVG Export Plug-In . SVG Version: 6.00 Build 0)  -->
<svg version="1.1" id="Layer_1" xmlns="http://www.w3.org/2000/svg" xmlns:xlink="http://www.w3.org/1999/xlink" x="0px" y="0px"
	 viewBox="0 0 300 300" style="enable-background:new 0 0 300 300;" xml:space="preserve">
<style type="text/css">
	.st0{fill:#EFEFEF;}
	.st1{clip-path:url(#SVGID_2_);fill:#5386C5;}
	.st2{clip-path:url(#SVGID_2_);fill:#DBB491;}
	.st3{clip-path:url(#SVGID_2_);fill:#C69E7F;}
	.st4{clip-path:url(#SVGID_2_);fill:#C6C5AF;}
	.st5{clip-path:url(#SVGID_2_);fill:#EAEAE1;}
	.st6{clip-path:url(#SVGID_2_);fill:#3B3B3B;}
</style>
<g>
	<circle class="st0" cx="150" cy="150" r="150"/>
	<g>
		<defs>
			<circle id="SVGID_1_" cx="150" cy="150" r="150"/>
		</defs>
		<clipPath id="SVGID_2_">
			<use xlink:href="#SVGID_1_"  style="overflow:visible;"/>
		</clipPath>
		<path class="st1" d="M263,248.7c-8.7-29.6-52.6-26.3-71.5-34.8c-18.9-8.5-16-37-18.4-42h-46.2c-2.4,5,0.6,33.5-18.4,42
			c-18.9,8.5-62.8,5.2-71.5,34.8c-4.8,16.3-4.6,21.3-5.9,39.4c0,0,60.2,11.9,117.6,11.9c57.4,0,120.3-11.9,120.3-11.9
			C267.6,270,267.8,265,263,248.7L263,248.7z M263,248.7"/>
		<path class="st2" d="M159.1,222.5l29.6-10.1l0,0c-15.9-9.9-13.4-35.8-15.6-40.5h-46.2c-2.3,4.8,0.3,31.3-16.3,40.9l0,0l29.4,9.7
			L150,248L159.1,222.5z M159.1,222.5"/>
		<path class="st3" d="M120.7,201.4c7.7,6.2,16.6,12.4,29.3,14.2c12.6-1.8,21.6-8.1,29.3-14.4c-6.4-11.7-4.4-25.7-6.1-29.3h-46.2
			C125.2,175.5,127.1,189.7,120.7,201.4L120.7,201.4z M120.7,201.4"/>
		<path class="st4" d="M188.7,212.4l-11.1,34.2l-18.5-24.1L188.7,212.4z M188.7,212.4"/>
		<path class="st4" d="M110.6,212.8l11.2,33.8l18.2-24.1L110.6,212.8z M110.6,212.8"/>
		<path class="st5" d="M140.1,222.5l-20.2-22.4c0,0-2.7,3.8-9.3,12.7l11.8,29.3L140.1,222.5z M140.1,222.5"/>
		<path class="st5" d="M159.1,222.5l20.2-22.4c0,0,2.8,3.4,9.4,12.3l-12,29.7L159.1,222.5z M159.1,222.5"/>
		<path class="st2" d="M201.1,159.4c-5-0.9-7.6-9-6-18.1c1.6-9.1,7-15.8,11.9-14.9c5,0.9,7.6,9,6,18.1
			C211.4,153.6,206.1,160.3,201.1,159.4L201.1,159.4z M201.1,159.4"/>
		<path class="st2" d="M86.8,144.5c-1.6-9.1,1.1-17.2,6-18.1c5-0.9,10.3,5.8,11.9,14.9c1.6,9.1-1,17.2-6,18.1
			C93.8,160.3,88.4,153.7,86.8,144.5L86.8,144.5z M86.8,144.5"/>
		<path class="st2" d="M200.3,87.1H99.6c0,0-28.2,114.9,50.3,126C228.5,202,200.3,87.1,200.3,87.1L200.3,87.1z M200.3,87.1"/>
		<path class="st6" d="M203.8,141.4c14.6-16,6-53.2,6-53.2C205.3,70.3,182.7,50,150,50c-17.2,0-31.7,5.5-42,13.6
			c-7.6,5.9-9.4,13.2-9.4,13.2s-6.7,4.1-8.4,11.4c0,0-8.6,37.2,6,53.2c0,0,0-16.8,0.8-26.1c0.8-9.3,3.3-24.8,18.5-24.6
			c9.9,0.1,19.8,9.4,33.1,11.4c12.9,2,23.3-2.1,37.5,0.6c14.1,2.6,16.5,12.2,17.4,21.5C204.1,129.7,203.8,141.4,203.8,141.4
			C203.8,141.4,203.8,141.4,203.8,141.4L203.8,141.4z M203.8,141.4"/>
	</g>
</g>
</svg>
